<svg width="20" height="20" viewBox="0 0 20 20" fill="none" xmlns="http://www.w3.org/2000/svg">
<path fill-rule="evenodd" clip-rule="evenodd" d="M14.7147 3.03213C14.6051 2.83169 14.3948 2.70703 14.1663 2.70703C13.9379 2.70703 13.7276 2.83169 13.618 3.03213L12.8219 4.48764L11.3664 5.28368C11.166 5.39331 11.0413 5.60357 11.0413 5.83203C11.0413 6.06049 11.166 6.27075 11.3664 6.38038L12.8219 7.17642L13.618 8.63193C13.7276 8.83238 13.9379 8.95703 14.1663 8.95703C14.3948 8.95703 14.6051 8.83238 14.7147 8.63193L15.5107 7.17642L16.9662 6.38038C17.1667 6.27075 17.2913 6.06049 17.2913 5.83203C17.2913 5.60357 17.1667 5.39331 16.9662 5.28368L15.5107 4.48764L14.7147 3.03213ZM13.8308 5.24805L14.1663 4.63454L14.5019 5.24805C14.5592 5.35292 14.6455 5.43914 14.7503 5.49649L15.3638 5.83203L14.7503 6.16757C14.6455 6.22492 14.5592 6.31115 14.5019 6.41601L14.1663 7.02952L13.8308 6.41601C13.7735 6.31115 13.6872 6.22492 13.5824 6.16757L12.9689 5.83203L13.5824 5.49649C13.6872 5.43914 13.7735 5.35292 13.8308 5.24805ZM8.91442 6.43606C8.82025 6.19729 8.58968 6.04036 8.33301 6.04036C8.07634 6.04036 7.84576 6.19729 7.75159 6.43606L6.43697 9.76933L3.1037 11.0839C2.86493 11.1781 2.70801 11.4087 2.70801 11.6654C2.70801 11.922 2.86493 12.1526 3.1037 12.2468L6.43697 13.5614L7.75159 16.8947C7.84576 17.1334 8.07634 17.2904 8.33301 17.2904C8.58968 17.2904 8.82025 17.1334 8.91442 16.8947L10.229 13.5614L13.5623 12.2468C13.8011 12.1526 13.958 11.922 13.958 11.6654C13.958 11.4087 13.8011 11.1781 13.5623 11.0839L10.229 9.76933L8.91442 6.43606ZM7.50021 10.4805L8.33301 8.36887L9.16581 10.4805C9.22933 10.6415 9.35684 10.769 9.51791 10.8326L11.6295 11.6654L9.51791 12.4982C9.35684 12.5617 9.22933 12.6892 9.16581 12.8503L8.33301 14.9619L7.50021 12.8503C7.43668 12.6892 7.30918 12.5617 7.1481 12.4982L5.03651 11.6654L7.1481 10.8326C7.30918 10.769 7.43668 10.6415 7.50021 10.4805Z" fill="#879098"/>
</svg>
