<svg width="24" height="24" viewBox="0 0 24 24" fill="none" xmlns="http://www.w3.org/2000/svg">
<path fill-rule="evenodd" clip-rule="evenodd" d="M3.25 4.25C3.25 3.69772 3.69772 3.25 4.25 3.25H19.75C20.3023 3.25 20.75 3.69772 20.75 4.25V7.75C20.75 8.30228 20.3023 8.75 19.75 8.75V19C19.75 19.9665 18.9665 20.75 18 20.75H6C5.0335 20.75 4.25 19.9665 4.25 19V8.75C3.69772 8.75 3.25 8.30228 3.25 7.75V4.25ZM5.75 8.75H18.25V19C18.25 19.1381 18.1381 19.25 18 19.25H6C5.86193 19.25 5.75 19.1381 5.75 19V8.75ZM19.25 4.75V7.25H19H5H4.75V4.75H19.25ZM10 11.25C9.58579 11.25 9.25 11.5858 9.25 12C9.25 12.4142 9.58579 12.75 10 12.75H14C14.4142 12.75 14.75 12.4142 14.75 12C14.75 11.5858 14.4142 11.25 14 11.25H10Z" fill="#002B51"/>
</svg>
