<svg width="24" height="24" viewBox="0 0 24 24" fill="none" xmlns="http://www.w3.org/2000/svg">
<path fill-rule="evenodd" clip-rule="evenodd" d="M6 2.25C5.0335 2.25 4.25 3.0335 4.25 4V20C4.25 20.9665 5.0335 21.75 6 21.75H18C18.9665 21.75 19.75 20.9665 19.75 20V8C19.75 7.80109 19.671 7.61032 19.5303 7.46967L14.5303 2.46967C14.3897 2.32902 14.1989 2.25 14 2.25H6ZM5.75 4C5.75 3.86193 5.86193 3.75 6 3.75H13.25V7.5C13.25 8.19036 13.8096 8.75 14.5 8.75H18.25V20C18.25 20.1381 18.1381 20.25 18 20.25H6C5.86193 20.25 5.75 20.1381 5.75 20V4ZM17.1893 7.25L14.75 4.81066V7.25H17.1893ZM9.75 13C9.75 12.5858 9.41421 12.25 9 12.25C8.58579 12.25 8.25 12.5858 8.25 13V17.5C8.25 17.9142 8.58579 18.25 9 18.25C9.41421 18.25 9.75 17.9142 9.75 17.5V13ZM12 10.25C12.4142 10.25 12.75 10.5858 12.75 11V17.5C12.75 17.9142 12.4142 18.25 12 18.25C11.5858 18.25 11.25 17.9142 11.25 17.5V11C11.25 10.5858 11.5858 10.25 12 10.25ZM15.75 14C15.75 13.5858 15.4142 13.25 15 13.25C14.5858 13.25 14.25 13.5858 14.25 14V17.5C14.25 17.9142 14.5858 18.25 15 18.25C15.4142 18.25 15.75 17.9142 15.75 17.5V14Z" fill="#0098C7"/>
</svg>
