<svg width="24" height="24" viewBox="0 0 24 24" fill="none" xmlns="http://www.w3.org/2000/svg">
<path fill-rule="evenodd" clip-rule="evenodd" d="M10.7498 2.25C9.78329 2.25 8.99979 3.0335 8.99979 4V4.65266C8.99979 4.74553 8.93522 4.87736 8.77134 4.95254C8.32697 5.1564 7.90538 5.40095 7.5113 5.68133C7.365 5.78542 7.21883 5.77561 7.13831 5.72912L6.57158 5.40192C5.73457 4.91867 4.66429 5.20546 4.18104 6.04247L2.93104 8.20753C2.44779 9.04454 2.73457 10.1148 3.57158 10.5981L4.13805 10.9251C4.21851 10.9716 4.30016 11.0932 4.28348 11.272C4.2611 11.5118 4.24968 11.7547 4.24968 12C4.24968 12.2453 4.2611 12.4882 4.28348 12.728C4.30016 12.9068 4.21851 13.0284 4.13805 13.0749L3.57162 13.4019C2.73461 13.8852 2.44783 14.9555 2.93108 15.7925L4.18108 17.9575C4.66432 18.7945 5.73461 19.0813 6.57162 18.5981L7.13832 18.2709C7.21885 18.2244 7.36502 18.2146 7.51132 18.3187C7.90539 18.5991 8.32698 18.8436 8.77134 19.0475C8.93522 19.1226 8.99979 19.2545 8.99979 19.3473V20C8.99979 20.9665 9.78329 21.75 10.7498 21.75H13.2498C14.2163 21.75 14.9998 20.9665 14.9998 20V19.3472C14.9998 19.2544 15.0644 19.1225 15.2282 19.0474C15.6725 18.8435 16.0941 18.599 16.4882 18.3186C16.6344 18.2145 16.7806 18.2243 16.8611 18.2708L17.428 18.5981C18.265 19.0813 19.3353 18.7945 19.8185 17.9575L21.0685 15.7925C21.5518 14.9555 21.265 13.8852 20.428 13.4019L19.8613 13.0748C19.7809 13.0283 19.6992 12.9067 19.7159 12.7279C19.7383 12.4881 19.7497 12.2453 19.7497 12C19.7497 11.7547 19.7383 11.5119 19.7159 11.2721C19.6992 11.0933 19.7809 10.9717 19.8613 10.9253L20.428 10.5981C21.265 10.1148 21.5518 9.04454 21.0686 8.20753L19.8186 6.04247C19.3353 5.20546 18.265 4.91867 17.428 5.40192L16.8612 5.7292C16.7806 5.77569 16.6345 5.7855 16.4882 5.68141C16.0941 5.40103 15.6726 5.15649 15.2282 4.95263C15.0644 4.87745 14.9998 4.74562 14.9998 4.65276V4C14.9998 3.0335 14.2163 2.25 13.2498 2.25H10.7498ZM15.4998 12.0001C15.4998 13.9331 13.9328 15.5001 11.9998 15.5001C10.0668 15.5001 8.49976 13.9331 8.49976 12.0001C8.49976 10.0671 10.0668 8.50009 11.9998 8.50009C13.9328 8.50009 15.4998 10.0671 15.4998 12.0001Z" fill="#002B51"/>
</svg>
