<svg width="20" height="21" viewBox="0 0 20 21" fill="none" xmlns="http://www.w3.org/2000/svg">
<path fill-rule="evenodd" clip-rule="evenodd" d="M4.5 2.07422C3.05025 2.07422 1.875 3.24947 1.875 4.69922V14.3659C1.875 16.552 3.64721 18.3242 5.83333 18.3242H15.5C16.9497 18.3242 18.125 17.149 18.125 15.6992V13.0326C18.125 11.5828 16.9497 10.4076 15.5 10.4076H15.2589L15.6944 9.97204C16.7195 8.94691 16.7195 7.28486 15.6944 6.25973L13.9395 4.50482C12.9144 3.4797 11.2523 3.4797 10.2272 4.50482L9.79167 4.94033V4.69922C9.79167 3.24947 8.61642 2.07422 7.16667 2.07422H4.5ZM8.54167 6.44999C8.54167 6.44948 8.54167 6.44896 8.54167 6.44844V4.69922C8.54167 3.93983 7.92606 3.32422 7.16667 3.32422H4.5C3.74061 3.32422 3.125 3.93983 3.125 4.69922V14.3659C3.125 15.8617 4.33756 17.0742 5.83333 17.0742C7.3291 17.0742 8.54167 15.8617 8.54167 14.3659V6.44999ZM9.79167 6.7081L11.1111 5.38871C11.648 4.85174 12.5186 4.85174 13.0556 5.38871L14.8105 7.14361C15.3475 7.68058 15.3475 8.55119 14.8105 9.08816L9.79167 14.107V6.7081ZM9.17146 16.4941C9.039 16.7014 8.88774 16.8956 8.7201 17.0742H15.5C16.2594 17.0742 16.875 16.4586 16.875 15.6992V13.0326C16.875 12.2732 16.2594 11.6576 15.5 11.6576H14.0089L9.19194 16.4745C9.18523 16.4812 9.1784 16.4877 9.17146 16.4941ZM5.83333 13.5326C5.3731 13.5326 5 13.9056 5 14.3659C5 14.8261 5.3731 15.1992 5.83333 15.1992C6.29357 15.1992 6.66667 14.8261 6.66667 14.3659C6.66667 13.9056 6.29357 13.5326 5.83333 13.5326Z" fill="#879098"/>
</svg>
