<svg width="20" height="21" viewBox="0 0 20 21" fill="none" xmlns="http://www.w3.org/2000/svg">
<path fill-rule="evenodd" clip-rule="evenodd" d="M10 2.07422C5.51269 2.07422 1.875 5.71191 1.875 10.1992C1.875 14.6865 5.51269 18.3242 10 18.3242C14.4873 18.3242 18.125 14.6865 18.125 10.1992C18.125 5.71191 14.4873 2.07422 10 2.07422ZM3.125 10.1992C3.125 10.1295 3.12604 10.0601 3.1281 9.99089H4.16667C4.97208 9.99089 5.625 10.6438 5.625 11.4492V12.0742C5.625 13.2248 6.55774 14.1576 7.70833 14.1576C8.16857 14.1576 8.54167 14.5306 8.54167 14.9909V16.9192C5.4452 16.2504 3.125 13.4958 3.125 10.1992ZM4.16667 8.74089H3.27998C3.57455 7.37708 4.27374 6.16387 5.24565 5.23314C5.46021 6.51445 6.57441 7.49089 7.91667 7.49089H8.33333C8.90863 7.49089 9.375 7.95726 9.375 8.53255V8.74089C9.375 9.89148 10.3077 10.8242 11.4583 10.8242H11.6667C12.7022 10.8242 13.5417 9.98475 13.5417 8.94922C13.5417 8.60404 13.8215 8.32422 14.1667 8.32422H16.6162C16.7848 8.92026 16.875 9.5492 16.875 10.1992C16.875 10.8492 16.7848 11.4782 16.6162 12.0742H16.5C13.9457 12.0742 11.875 14.1449 11.875 16.6992V16.8154C11.279 16.984 10.65 17.0742 10 17.0742C9.93031 17.0742 9.86086 17.0732 9.79167 17.0711V14.9909C9.79167 13.8403 8.85893 12.9076 7.70833 12.9076C7.2481 12.9076 6.875 12.5345 6.875 12.0742V11.4492C6.875 9.95345 5.66244 8.74089 4.16667 8.74089ZM16.1254 7.07422C14.9874 4.84817 12.6717 3.32422 10 3.32422C8.70452 3.32422 7.49273 3.68253 6.45833 4.30546V4.78255C6.45833 5.58797 7.11125 6.24089 7.91667 6.24089H8.33333C9.59898 6.24089 10.625 7.2669 10.625 8.53255V8.74089C10.625 9.20112 10.9981 9.57422 11.4583 9.57422H11.6667C12.0118 9.57422 12.2917 9.2944 12.2917 8.94922C12.2917 7.91368 13.1311 7.07422 14.1667 7.07422H16.1254ZM13.1468 16.3134C14.4181 15.6578 15.4585 14.6173 16.1142 13.346C14.5585 13.5231 13.3239 14.7577 13.1468 16.3134Z" fill="#879098"/>
</svg>
