<svg width="20" height="21" viewBox="0 0 20 21" fill="none" xmlns="http://www.w3.org/2000/svg">
<path fill-rule="evenodd" clip-rule="evenodd" d="M10.0003 2.27344C7.12384 2.27344 4.79199 4.60529 4.79199 7.48177C4.79199 9.18088 5.60561 10.69 6.8645 11.6407L5.63746 17.7759C5.58789 18.0237 5.69251 18.2771 5.90255 18.4177C6.11259 18.5584 6.38668 18.5587 6.59701 18.4185L10.0003 16.1496L13.4036 18.4185C13.614 18.5587 13.8881 18.5584 14.0981 18.4177C14.3081 18.2771 14.4128 18.0237 14.3632 17.7759L13.1361 11.6407C14.395 10.69 15.2087 9.18088 15.2087 7.48177C15.2087 4.60529 12.8768 2.27344 10.0003 2.27344ZM11.9924 12.2956C11.3787 12.5498 10.7059 12.6901 10.0003 12.6901C9.29475 12.6901 8.62194 12.5498 8.00828 12.2956L7.15911 16.5414L9.65364 14.8784C9.86357 14.7384 10.1371 14.7384 10.347 14.8784L12.8415 16.5414L11.9924 12.2956ZM6.04199 7.48177C6.04199 5.29564 7.8142 3.52344 10.0003 3.52344C12.1865 3.52344 13.9587 5.29564 13.9587 7.48177C13.9587 9.6679 12.1865 11.4401 10.0003 11.4401C7.8142 11.4401 6.04199 9.6679 6.04199 7.48177Z" fill="#879098"/>
</svg>
