<svg width="24" height="24" viewBox="0 0 24 24" fill="none" xmlns="http://www.w3.org/2000/svg">
<path fill-rule="evenodd" clip-rule="evenodd" d="M5 6C5 5.44772 4.55228 5 4 5C3.44772 5 3 5.44772 3 6V6.01C3 6.56228 3.44772 7.01 4 7.01C4.55228 7.01 5 6.56228 5 6.01V6ZM8.5 5.25C8.08579 5.25 7.75 5.58579 7.75 6C7.75 6.41421 8.08579 6.75 8.5 6.75H20C20.4142 6.75 20.75 6.41421 20.75 6C20.75 5.58579 20.4142 5.25 20 5.25H8.5ZM8.5 11.25C8.08579 11.25 7.75 11.5858 7.75 12C7.75 12.4142 8.08579 12.75 8.5 12.75H20C20.4142 12.75 20.75 12.4142 20.75 12C20.75 11.5858 20.4142 11.25 20 11.25H8.5ZM7.75 18C7.75 17.5858 8.08579 17.25 8.5 17.25H20C20.4142 17.25 20.75 17.5858 20.75 18C20.75 18.4142 20.4142 18.75 20 18.75H8.5C8.08579 18.75 7.75 18.4142 7.75 18ZM4 11C4.55228 11 5 11.4477 5 12V12.01C5 12.5623 4.55228 13.01 4 13.01C3.44772 13.01 3 12.5623 3 12.01V12C3 11.4477 3.44772 11 4 11ZM5 18C5 17.4477 4.55228 17 4 17C3.44772 17 3 17.4477 3 18V18.01C3 18.5623 3.44772 19.01 4 19.01C4.55228 19.01 5 18.5623 5 18.01V18Z" fill="#002B51"/>
</svg>
