<svg width="24" height="24" viewBox="0 0 24 24" fill="none" xmlns="http://www.w3.org/2000/svg">
<path fill-rule="evenodd" clip-rule="evenodd" d="M10.7498 2.25C9.78329 2.25 8.99979 3.0335 8.99979 4V4.65266C8.99979 4.74553 8.93522 4.87736 8.77134 4.95254C8.32697 5.1564 7.90538 5.40095 7.5113 5.68133C7.365 5.78542 7.21883 5.77561 7.13831 5.72912L6.57158 5.40192C5.73457 4.91867 4.66429 5.20546 4.18104 6.04247L2.93104 8.20753C2.44779 9.04454 2.73457 10.1148 3.57158 10.5981L4.13805 10.9251C4.21851 10.9716 4.30016 11.0932 4.28348 11.272C4.2611 11.5118 4.24968 11.7547 4.24968 12C4.24968 12.2453 4.2611 12.4882 4.28348 12.728C4.30016 12.9068 4.21851 13.0284 4.13805 13.0749L3.57162 13.4019C2.73461 13.8852 2.44783 14.9555 2.93108 15.7925L4.18108 17.9575C4.66432 18.7945 5.73461 19.0813 6.57162 18.5981L7.13832 18.2709C7.21885 18.2244 7.36502 18.2146 7.51132 18.3187C7.90539 18.5991 8.32698 18.8436 8.77134 19.0475C8.93522 19.1226 8.99979 19.2545 8.99979 19.3473V20C8.99979 20.9665 9.78329 21.75 10.7498 21.75H13.2498C14.2163 21.75 14.9998 20.9665 14.9998 20V19.3472C14.9998 19.2544 15.0644 19.1225 15.2282 19.0474C15.6725 18.8435 16.0941 18.599 16.4882 18.3186C16.6344 18.2145 16.7806 18.2243 16.8611 18.2708L17.428 18.5981C18.265 19.0813 19.3353 18.7945 19.8185 17.9575L21.0685 15.7925C21.5518 14.9555 21.265 13.8852 20.428 13.4019L19.8613 13.0748C19.7809 13.0283 19.6992 12.9067 19.7159 12.7279C19.7383 12.4881 19.7497 12.2453 19.7497 12C19.7497 11.7547 19.7383 11.5119 19.7159 11.2721C19.6992 11.0933 19.7809 10.9717 19.8613 10.9253L20.428 10.5981C21.265 10.1148 21.5518 9.04454 21.0686 8.20753L19.8186 6.04247C19.3353 5.20546 18.265 4.91867 17.428 5.40192L16.8612 5.7292C16.7806 5.77569 16.6345 5.7855 16.4882 5.68141C16.0941 5.40103 15.6726 5.15649 15.2282 4.95263C15.0644 4.87745 14.9998 4.74562 14.9998 4.65276V4C14.9998 3.0335 14.2163 2.25 13.2498 2.25H10.7498ZM10.4998 4C10.4998 3.86193 10.6117 3.75 10.7498 3.75H13.2498C13.3879 3.75 13.4998 3.86193 13.4998 4V4.65276C13.4998 5.41685 13.9877 6.03382 14.6027 6.31599C14.9606 6.48021 15.3006 6.67734 15.6185 6.9036C16.1706 7.29642 16.9494 7.41031 17.6112 7.02824L18.178 6.70096C18.2976 6.63193 18.4505 6.6729 18.5195 6.79247L19.7695 8.95753C19.8386 9.07711 19.7976 9.23 19.678 9.29904L19.1113 9.62622C18.4504 10.0078 18.1596 10.7378 18.2224 11.4114C18.2404 11.605 18.2497 11.8013 18.2497 12C18.2497 12.1987 18.2404 12.395 18.2224 12.5886C18.1596 13.2622 18.4504 13.9922 19.1113 14.3738L19.678 14.701C19.7976 14.77 19.8385 14.9229 19.7695 15.0425L18.5195 17.2075C18.4505 17.3271 18.2976 17.3681 18.178 17.299L17.6111 16.9718C16.9494 16.5897 16.1706 16.7036 15.6185 17.0964C15.3005 17.3227 14.9606 17.5198 14.6027 17.684C13.9877 17.9662 13.4998 18.5832 13.4998 19.3472V20C13.4998 20.1381 13.3879 20.25 13.2498 20.25H10.7498C10.6117 20.25 10.4998 20.1381 10.4998 20V19.3473C10.4998 18.5832 10.0118 17.9662 9.39681 17.6841C9.03886 17.5199 8.69892 17.3227 8.38091 17.0965C7.82883 16.7037 7.05008 16.5898 6.38832 16.9719L5.82162 17.299C5.70205 17.3681 5.54915 17.3271 5.48011 17.2075L4.23011 15.0425C4.16108 14.9229 4.20205 14.77 4.32162 14.701L4.88805 14.3739C5.54899 13.9923 5.83983 13.2623 5.77699 12.5887C5.75893 12.3951 5.74968 12.1987 5.74968 12C5.74968 11.8013 5.75893 11.6049 5.77699 11.4113C5.83983 10.7377 5.54898 10.0077 4.88805 9.62609L4.32158 9.29904C4.20201 9.23 4.16104 9.0771 4.23007 8.95753L5.48007 6.79247C5.54911 6.6729 5.70201 6.63193 5.82158 6.70096L6.38831 7.02816C7.05006 7.41023 7.82882 7.29635 8.3809 6.90354C8.69892 6.67728 9.03885 6.48013 9.39681 6.31592C10.0118 6.03376 10.4998 5.41677 10.4998 4.65266V4ZM9.24976 12.0001C9.24976 10.4813 10.481 9.25009 11.9998 9.25009C13.5185 9.25009 14.7498 10.4813 14.7498 12.0001C14.7498 13.5189 13.5185 14.7501 11.9998 14.7501C10.481 14.7501 9.24976 13.5189 9.24976 12.0001ZM11.9998 7.75009C9.65255 7.75009 7.74976 9.65288 7.74976 12.0001C7.74976 14.3473 9.65255 16.2501 11.9998 16.2501C14.347 16.2501 16.2498 14.3473 16.2498 12.0001C16.2498 9.65288 14.347 7.75009 11.9998 7.75009Z" fill="#6C7B89"/>
</svg>
