<svg width="24" height="24" viewBox="0 0 24 24" fill="none" xmlns="http://www.w3.org/2000/svg">
<path fill-rule="evenodd" clip-rule="evenodd" d="M7.60661 3.55892C7.85023 3.89391 7.77617 4.36298 7.44118 4.60661L4.69118 6.60661C4.35619 6.85023 3.88713 6.77617 3.6435 6.44118C3.39987 6.10619 3.47393 5.63713 3.80892 5.3935L6.55892 3.3935C6.89391 3.14987 7.36298 3.22393 7.60661 3.55892ZM12 5.25005C7.71979 5.25005 4.25 8.71984 4.25 13C4.25 17.2803 7.71979 20.75 12 20.75C16.2802 20.75 19.75 17.2803 19.75 13C19.75 8.71984 16.2802 5.25005 12 5.25005ZM12 9.00006C12.4142 9.00006 12.75 9.33585 12.75 9.75006V12.5754L14.8859 13.8569C15.2411 14.0701 15.3562 14.5307 15.1431 14.8859C14.93 15.2411 14.4693 15.3563 14.1141 15.1432L11.6141 13.6432C11.3882 13.5076 11.25 13.2635 11.25 13.0001V9.75006C11.25 9.33585 11.5858 9.00006 12 9.00006ZM17.4412 3.3935C17.1062 3.14987 16.6371 3.22393 16.3935 3.55892C16.1499 3.89391 16.2239 4.36298 16.5589 4.60661L19.3089 6.60661C19.6439 6.85023 20.113 6.77617 20.3566 6.44118C20.6002 6.10619 20.5262 5.63713 20.1912 5.3935L17.4412 3.3935Z" fill="#002B51"/>
</svg>
