<svg width="24" height="24" viewBox="0 0 24 24" fill="none" xmlns="http://www.w3.org/2000/svg">
<path fill-rule="evenodd" clip-rule="evenodd" d="M7.60661 3.55892C7.85023 3.89391 7.77617 4.36298 7.44118 4.60661L4.69118 6.60661C4.35619 6.85023 3.88713 6.77617 3.6435 6.44118C3.39987 6.10619 3.47393 5.63713 3.80892 5.3935L6.55892 3.3935C6.89391 3.14987 7.36298 3.22393 7.60661 3.55892ZM12 5.25005C7.71979 5.25005 4.25 8.71984 4.25 13C4.25 17.2803 7.71979 20.75 12 20.75C16.2802 20.75 19.75 17.2803 19.75 13C19.75 8.71984 16.2802 5.25005 12 5.25005ZM5.75 13C5.75 9.54827 8.54822 6.75005 12 6.75005C15.4518 6.75005 18.25 9.54827 18.25 13C18.25 16.4518 15.4518 19.25 12 19.25C8.54822 19.25 5.75 16.4518 5.75 13ZM12.75 9.75005C12.75 9.33583 12.4142 9.00005 12 9.00005C11.5858 9.00005 11.25 9.33583 11.25 9.75005V13C11.25 13.2635 11.3882 13.5076 11.6141 13.6432L14.1141 15.1432C14.4693 15.3563 14.93 15.2411 15.1431 14.8859C15.3562 14.5307 15.2411 14.07 14.8859 13.8569L12.75 12.5754V9.75005ZM17.4412 3.3935C17.1062 3.14987 16.6371 3.22393 16.3935 3.55892C16.1499 3.89391 16.2239 4.36298 16.5589 4.60661L19.3089 6.60661C19.6439 6.85023 20.113 6.77617 20.3566 6.44118C20.6002 6.10619 20.5262 5.63713 20.1912 5.3935L17.4412 3.3935Z" fill="#6C7B89"/>
</svg>
