<?xml version="1.0" encoding="UTF-8"?><svg xmlns="http://www.w3.org/2000/svg" viewBox="0 0 483.25 483.25"><g id="a"><circle cx="241.63" cy="241.63" r="241.63" style="fill:#e3f6ff;"/></g><g id="b"><line x1="81.63" y1="387.25" x2="401.63" y2="387.25" style="fill:none; stroke:#000; stroke-linecap:round; stroke-linejoin:round; stroke-width:10px;"/><path d="M116.13,386.88c.49-19.54-.83-39.11-3.95-58.42,14.46-.09,28.92-1.18,43.23-3.24-.78,20.46-.11,40.96,1.99,61.33" style="fill:none; stroke:#000; stroke-linecap:round; stroke-linejoin:round; stroke-width:10px;"/><path d="M181.16,386.49c-.41-44.92-1.7-89.82-3.86-134.69,14.86,1.65,30.01,.73,44.54-2.71,1.2,45.67,1.86,91.35,1.99,137.04" style="fill:none; stroke:#000; stroke-linecap:round; stroke-linejoin:round; stroke-width:10px;"/><path d="M249.96,387.63c-.55-35.59-1.1-71.19-1.64-106.78,11.13,.76,22.26,1.51,33.38,2.27-.41,34.6,.65,69.21,3.16,103.73" style="fill:none; stroke:#000; stroke-linecap:round; stroke-linejoin:round; stroke-width:10px;"/><path d="M312.79,385.01c-.92-58.38-4.07-116.73-9.43-174.89,15.39-1.02,30.79-2.04,46.18-3.07,.8-.05,1.71-.06,2.26,.5,.48,.5,.5,1.26,.48,1.95-1.36,58.87-2.72,117.73-4.08,176.6" style="fill:none; stroke:#000; stroke-linecap:round; stroke-linejoin:round; stroke-width:10px;"/><path d="M98.83,252.67c26.91-29.96,53.83-59.91,80.74-89.87,16.02,8.79,30.32,20.55,41.9,34.46,19.11-21.44,38.97-42.24,59.53-62.37" style="fill:none; stroke:#000; stroke-linecap:round; stroke-linejoin:round; stroke-width:10px;"/><path d="M296.37,144.62c-6.15-6.75-12.3-13.49-23.57-22.61,8.58-6.4,18.67-10.54,28.64-14.6,9.63-3.93,19.26-7.85,28.89-11.78-10.82,16.53-21.63,33.06-33.96,49Z" style="fill:none; stroke:#000; stroke-linecap:round; stroke-linejoin:round; stroke-width:10px;"/></g></svg>